<?xml version="1.0" encoding="utf-8"?><svg viewBox="0 0 24 20" xmlns="http://www.w3.org/2000/svg" xmlns:xlink="http://www.w3.org/1999/xlink"><style>:root>svg{display:none}:root>svg:target{display:block}</style><svg viewBox="0 0 10.03 12" id="btn-next" xmlns="http://www.w3.org/2000/svg"><defs><style>.acls-1{fill:#aa9b77;fill-rule:evenodd}</style></defs><path id="afa-chevron-right" class="acls-1" d="M1180.79 1109.33a.4.4 0 000-.67l-7.2-5.53a.768.768 0 00-.87 0l-1.61 1.24a.4.4 0 000 .67l5.15 3.95-5.15 3.96a.4.4 0 000 .67l1.61 1.23a.735.735 0 00.87 0z" transform="translate(-1170.94 -1103)"/></svg><svg viewBox="0 0 10.03 12" id="btn-prev" xmlns="http://www.w3.org/2000/svg"><defs><style>.bcls-1{fill:#aa9b77;fill-rule:evenodd}</style></defs><path id="bfa-chevron-left" class="bcls-1" d="M1162.86 1105.04a.4.4 0 000-.67l-1.61-1.24a.784.784 0 00-.88 0l-7.2 5.53a.4.4 0 000 .67l7.2 5.52a.751.751 0 00.88 0l1.61-1.23a.4.4 0 000-.67l-5.16-3.96z" transform="translate(-1153 -1103)"/></svg><svg viewBox="0 0 24 20" id="shopping-cart" xmlns="http://www.w3.org/2000/svg"><path d="M9.23 18.177A1.845 1.845 0 107.38 20a1.826 1.826 0 001.85-1.823zm12.92 0A1.845 1.845 0 1020.31 20a1.824 1.824 0 001.84-1.823zM24 2.728a.923.923 0 00-.92-.909H5.75C5.61 1.137 5.6.001 4.62.001H.92a.909.909 0 100 1.818h2.95l2.55 11.686a7.865 7.865 0 00-.88 1.945.923.923 0 00.92.909h14.77a.909.909 0 100-1.817H7.96a2.065 2.065 0 00.35-.908 5.558 5.558 0 00-.19-.994l15.06-1.732A.927.927 0 0024 10V2.73z"/></svg></svg>